<?xml version="1.0" standalone="no"?><!DOCTYPE svg PUBLIC "-//W3C//DTD SVG 1.1//EN" "http://www.w3.org/Graphics/SVG/1.1/DTD/svg11.dtd"><svg t="1741834830679" class="icon" viewBox="0 0 1024 1024" version="1.1" xmlns="http://www.w3.org/2000/svg" p-id="3536" xmlns:xlink="http://www.w3.org/1999/xlink" width="200" height="200"><path d="M267.84 645.824a29.12 29.12 0 1 1 0 58.176H151.296A87.264 87.264 0 0 1 64 616.736V151.264A87.264 87.264 0 0 1 151.264 64h465.472A87.264 87.264 0 0 1 704 151.264v465.472A87.264 87.264 0 0 1 616.736 704H529.28a29.12 29.12 0 0 1 0-58.176h87.424a29.12 29.12 0 0 0 29.088-29.12V151.296a29.12 29.12 0 0 0-29.12-29.088H151.296a29.12 29.12 0 0 0-29.088 29.12v465.44c0 16.064 13.024 29.088 29.12 29.088H267.84z m288-267.648H439.264a29.12 29.12 0 0 0-29.088 29.12v465.44c0 16.064 13.024 29.088 29.12 29.088h465.44a29.12 29.12 0 0 0 29.088-29.12V407.296a29.12 29.12 0 0 0-29.12-29.088h-87.36a29.12 29.12 0 1 1 0-58.176h87.36A87.264 87.264 0 0 1 992 407.264v465.472A87.264 87.264 0 0 1 904.736 960H439.264A87.264 87.264 0 0 1 352 872.736V407.264A87.264 87.264 0 0 1 439.264 320h116.608a29.12 29.12 0 1 1 0 58.176z" p-id="3537" fill="#1296db"></path></svg>